<svg width="64" height="64" viewBox="0 0 64 64" fill="none" xmlns="http://www.w3.org/2000/svg">
<circle opacity="0.7" cx="32" cy="32" r="31.5" stroke="url(#paint0_linear_2235_294)"/>
<circle opacity="0.7" cx="32" cy="32" r="24" fill="url(#paint1_linear_2235_294)"/>
<g filter="url(#filter0_d_2235_294)">
<path d="M43.1306 22.072C46.7446 27.4185 48.5294 33.4492 47.8622 40.3918C47.8594 40.4212 47.8442 40.4482 47.8202 40.4659C45.0834 42.4879 42.4318 43.7151 39.8174 44.5289C39.7971 44.5351 39.7753 44.5347 39.7551 44.5279C39.735 44.521 39.7175 44.508 39.705 44.4906C39.101 43.645 38.5522 42.7535 38.0714 41.8174C38.0438 41.7622 38.069 41.6958 38.1258 41.6741C38.9974 41.3437 39.8262 40.9476 40.6234 40.4788C40.6862 40.4417 40.6902 40.3512 40.6322 40.3077C40.463 40.1813 40.2954 40.0485 40.135 39.9157C40.105 39.8911 40.0646 39.8863 40.0306 39.9028C34.855 42.3076 29.1855 42.3076 23.9487 39.9028C23.9147 39.8875 23.8743 39.8928 23.8451 39.9169C23.6851 40.0497 23.5171 40.1813 23.3495 40.3077C23.2915 40.3512 23.2963 40.4417 23.3595 40.4788C24.1567 40.9388 24.9855 41.3437 25.8559 41.6757C25.9123 41.6975 25.9391 41.7622 25.9111 41.8174C25.4407 42.7547 24.8919 43.6462 24.2767 44.4918C24.2499 44.526 24.2059 44.5417 24.1643 44.5289C21.5623 43.7151 18.9107 42.4879 16.1739 40.4659C16.1511 40.4482 16.1347 40.42 16.1323 40.3906C15.5747 34.3853 16.7111 28.3047 20.8595 22.0708C20.8695 22.0543 20.8847 22.0414 20.9023 22.0338C22.9435 21.0912 25.1303 20.3977 27.4159 20.0017C27.4575 19.9953 27.4991 20.0146 27.5207 20.0516C27.8031 20.5547 28.1259 21.1999 28.3443 21.7271C30.7535 21.3568 33.2003 21.3568 35.6598 21.7271C35.8782 21.2111 36.1898 20.5547 36.471 20.0516C36.4811 20.0332 36.4966 20.0185 36.5154 20.0096C36.5342 20.0006 36.5554 19.9978 36.5758 20.0017C38.8626 20.3989 41.0494 21.0924 43.089 22.0338C43.107 22.0414 43.1218 22.0543 43.1306 22.072V22.072ZM29.5691 33.4902C29.5943 31.7149 28.3079 30.2459 26.6931 30.2459C25.0915 30.2459 23.8175 31.702 23.8175 33.4902C23.8175 35.278 25.1167 36.7341 26.6931 36.7341C28.2951 36.7341 29.5691 35.278 29.5691 33.4902V33.4902ZM40.2018 33.4902C40.227 31.7149 38.9406 30.2459 37.3262 30.2459C35.7242 30.2459 34.4503 31.702 34.4503 33.4902C34.4503 35.278 35.7494 36.7341 37.3262 36.7341C38.9406 36.7341 40.2018 35.278 40.2018 33.4902V33.4902Z" fill="white"/>
</g>
<defs>
<filter id="filter0_d_2235_294" x="12" y="18" width="48" height="40.5333" filterUnits="userSpaceOnUse" color-interpolation-filters="sRGB">
<feFlood flood-opacity="0" result="BackgroundImageFix"/>
<feColorMatrix in="SourceAlpha" type="matrix" values="0 0 0 0 0 0 0 0 0 0 0 0 0 0 0 0 0 0 127 0" result="hardAlpha"/>
<feOffset dx="4" dy="6"/>
<feGaussianBlur stdDeviation="4"/>
<feComposite in2="hardAlpha" operator="out"/>
<feColorMatrix type="matrix" values="0 0 0 0 0 0 0 0 0 0 0 0 0 0 0 0 0 0 0.25 0"/>
<feBlend mode="normal" in2="BackgroundImageFix" result="effect1_dropShadow_2235_294"/>
<feBlend mode="normal" in="SourceGraphic" in2="effect1_dropShadow_2235_294" result="shape"/>
</filter>
<linearGradient id="paint0_linear_2235_294" x1="-2.00735e-08" y1="23.474" x2="64" y2="23.474" gradientUnits="userSpaceOnUse">
<stop stop-color="#E37B00"/>
<stop offset="1" stop-color="#BD7100"/>
</linearGradient>
<linearGradient id="paint1_linear_2235_294" x1="8" y1="25.6055" x2="56" y2="25.6055" gradientUnits="userSpaceOnUse">
<stop stop-color="#E37B00"/>
<stop offset="1" stop-color="#BD7100"/>
</linearGradient>
</defs>
</svg>
