<svg width="64" height="64" viewBox="0 0 64 64" fill="none" xmlns="http://www.w3.org/2000/svg">
<circle opacity="0.7" cx="32" cy="32" r="31.5" stroke="url(#paint0_linear_2235_302)"/>
<circle opacity="0.7" cx="32" cy="32" r="24" fill="url(#paint1_linear_2235_302)"/>
<g filter="url(#filter0_d_2235_302)">
<path fill-rule="evenodd" clip-rule="evenodd" d="M33.4608 18L33.5234 18H33.5921C37.9709 18.1194 41.1693 21.6774 41.3092 25.4249H41.3217C41.3278 25.4838 41.3301 25.5459 41.3324 25.6081V25.6081V25.6082C41.3343 25.6607 41.3363 25.7133 41.3405 25.7641C41.4279 26.8206 41.4162 27.9733 41.1404 29.1373C41.2764 29.1423 41.408 29.1478 41.5406 29.1558C42.7174 29.2266 44.0866 29.386 45.2803 30.5125C46.4741 31.639 46.6674 33.0541 46.7375 34.0831C46.7823 34.7418 46.7848 35.3944 46.7875 36.1309V36.131V36.1312C46.789 36.5451 46.7907 36.9857 46.8 37.4687V37.5119V37.555C46.772 40.1408 45.988 42.556 44.2985 44.2707C42.609 45.9854 40.1966 46.7786 37.7321 46.7991H37.7196H37.7071H27.2446C27.2381 46.7992 27.2316 46.7992 27.2252 46.7991C27.2192 46.7991 27.2132 46.799 27.2071 46.7991C24.5708 46.8265 22.0172 46.2262 20.2154 44.4064C18.4437 42.617 17.8806 40.0758 18.0204 37.407H18.0141C18.0142 37.3941 18.0157 37.3816 18.0172 37.3692C18.0187 37.3572 18.0202 37.3453 18.0204 37.333C18.0213 37.3165 18.0208 37.3004 18.0203 37.2843C18.0198 37.2678 18.0193 37.2513 18.0204 37.2344H18.0329L18.2205 25.7764H18.2267C18.2807 24.2909 18.6197 22.6705 19.7026 21.1759C21.0828 19.2709 23.6721 18.0977 26.638 18.1048H26.7068L33.4608 18ZM26.9385 34.8C26.036 34.7878 25.1966 35.2425 24.7416 35.99C24.2867 36.7375 24.2867 37.6621 24.7416 38.4096C25.1966 39.1571 26.036 39.6118 26.9385 39.5996H38.6623C39.5648 39.6118 40.4042 39.1571 40.8592 38.4096C41.3141 37.6621 41.3141 36.7375 40.8592 35.99C40.4042 35.2425 39.5648 34.7878 38.6623 34.8H26.9385ZM25.1995 26.7209C25.2209 25.4199 26.3925 24.3811 27.8165 24.4007L33.8625 24.489C35.2864 24.5101 36.422 25.5819 36.3989 26.8828C36.3757 28.1837 35.2026 29.2212 33.7787 29.2001L27.7391 29.1117C26.3152 29.0922 25.1782 28.0218 25.1995 26.7209Z" fill="white"/>
</g>
<defs>
<filter id="filter0_d_2235_302" x="14" y="16" width="44.8008" height="44.8" filterUnits="userSpaceOnUse" color-interpolation-filters="sRGB">
<feFlood flood-opacity="0" result="BackgroundImageFix"/>
<feColorMatrix in="SourceAlpha" type="matrix" values="0 0 0 0 0 0 0 0 0 0 0 0 0 0 0 0 0 0 127 0" result="hardAlpha"/>
<feOffset dx="4" dy="6"/>
<feGaussianBlur stdDeviation="4"/>
<feComposite in2="hardAlpha" operator="out"/>
<feColorMatrix type="matrix" values="0 0 0 0 0 0 0 0 0 0 0 0 0 0 0 0 0 0 0.25 0"/>
<feBlend mode="normal" in2="BackgroundImageFix" result="effect1_dropShadow_2235_302"/>
<feBlend mode="normal" in="SourceGraphic" in2="effect1_dropShadow_2235_302" result="shape"/>
</filter>
<linearGradient id="paint0_linear_2235_302" x1="-2.00735e-08" y1="23.474" x2="64" y2="23.474" gradientUnits="userSpaceOnUse">
<stop stop-color="#E37B00"/>
<stop offset="1" stop-color="#BD7100"/>
</linearGradient>
<linearGradient id="paint1_linear_2235_302" x1="8" y1="25.6055" x2="56" y2="25.6055" gradientUnits="userSpaceOnUse">
<stop stop-color="#E37B00"/>
<stop offset="1" stop-color="#BD7100"/>
</linearGradient>
</defs>
</svg>
