<svg width="219" height="66" viewBox="0 0 219 66" fill="none" xmlns="http://www.w3.org/2000/svg">
<g filter="url(#filter0_di_448_4709)">
<path fill-rule="evenodd" clip-rule="evenodd" d="M210.789 6C212.01 6 213 6.98986 213 8.21092V44.4555C213 45.2951 212.524 46.0623 211.772 46.4357L184.919 59.7693C184.614 59.921 184.277 60 183.936 60H8.21092C6.98986 60 6 59.0101 6 57.7891V24.1245C6 23.2753 6.48637 22.5012 7.25143 22.1326L40.2875 6.21905C40.5868 6.07487 40.9147 6 41.247 6H210.789ZM208.789 9C210.01 9 211 9.98986 211 11.2109V42.2545C211 43.114 210.502 43.8956 209.723 44.2586L184.967 55.7931C184.675 55.9294 184.356 56 184.033 56H21.2109C19.9899 56 19 55.0101 19 53.7891V24.993C19 24.1243 19.5087 23.3361 20.3003 22.9783L50.7905 9.19626C51.0766 9.0669 51.3871 9 51.7011 9H208.789Z" fill="white"/>
<path d="M92.0676 38H84.7776V24.68H92.0676V25.886H86.1096V30.674H91.8696V31.88H86.1096V36.794H92.0676V38ZM101.592 38H100.098L97.488 34.058L94.878 38H93.384L96.75 32.996L93.384 28.154H94.896L97.488 31.952L100.062 28.154H101.592L98.226 32.996L101.592 38ZM113.39 33.05C113.39 34.526 112.88 35.762 111.86 36.758C110.84 37.742 109.586 38.234 108.098 38.234C107.33 38.234 106.604 38.066 105.92 37.73C105.248 37.382 104.696 36.896 104.264 36.272H104.228V41.456H102.968V28.154H104.228V29.882H104.264C104.708 29.246 105.26 28.76 105.92 28.424C106.592 28.076 107.318 27.902 108.098 27.902C109.562 27.902 110.81 28.394 111.842 29.378C112.874 30.362 113.39 31.586 113.39 33.05ZM112.13 33.104C112.13 31.94 111.746 30.974 110.978 30.206C110.222 29.426 109.262 29.036 108.098 29.036C106.994 29.036 106.058 29.438 105.29 30.242C104.534 31.034 104.156 31.982 104.156 33.086C104.156 34.19 104.534 35.138 105.29 35.93C106.058 36.71 106.994 37.1 108.098 37.1C109.25 37.1 110.21 36.722 110.978 35.966C111.746 35.21 112.13 34.256 112.13 33.104ZM116.516 38H115.256V24.68H116.516V38ZM128.741 33.068C128.741 34.484 128.231 35.702 127.211 36.722C126.203 37.73 124.991 38.234 123.575 38.234C122.183 38.234 120.977 37.73 119.957 36.722C118.949 35.714 118.445 34.52 118.445 33.14C118.445 31.712 118.943 30.482 119.939 29.45C120.935 28.418 122.147 27.902 123.575 27.902C124.979 27.902 126.191 28.412 127.211 29.432C128.231 30.452 128.741 31.664 128.741 33.068ZM127.481 33.014C127.481 31.934 127.097 31.004 126.329 30.224C125.573 29.432 124.661 29.036 123.593 29.036C122.501 29.036 121.577 29.444 120.821 30.26C120.077 31.064 119.705 32.018 119.705 33.122C119.705 34.202 120.083 35.138 120.839 35.93C121.595 36.71 122.513 37.1 123.593 37.1C124.709 37.1 125.633 36.704 126.365 35.912C127.109 35.108 127.481 34.142 127.481 33.014ZM134.722 29.234C133.846 29.306 133.156 29.606 132.652 30.134C132.16 30.662 131.914 31.364 131.914 32.24V38H130.654V28.154H131.914V29.576H131.95C132.202 28.988 132.55 28.574 132.994 28.334C133.438 28.094 134.014 27.95 134.722 27.902V29.234ZM145.737 33.176C145.737 33.224 145.731 33.284 145.719 33.356C145.719 33.428 145.719 33.488 145.719 33.536H136.755C136.803 34.496 137.205 35.33 137.961 36.038C138.729 36.746 139.599 37.1 140.571 37.1C141.351 37.1 142.065 36.89 142.713 36.47C143.373 36.05 143.835 35.486 144.099 34.778H145.431C145.071 35.81 144.447 36.644 143.559 37.28C142.671 37.916 141.681 38.234 140.589 38.234C139.173 38.234 137.961 37.73 136.953 36.722C135.957 35.714 135.459 34.502 135.459 33.086C135.459 31.67 135.957 30.452 136.953 29.432C137.961 28.412 139.167 27.902 140.571 27.902C141.999 27.902 143.217 28.424 144.225 29.468C145.233 30.512 145.737 31.748 145.737 33.176ZM144.441 32.402C144.273 31.43 143.835 30.626 143.127 29.99C142.419 29.354 141.573 29.036 140.589 29.036C139.617 29.036 138.771 29.354 138.051 29.99C137.343 30.626 136.911 31.43 136.755 32.402H144.441Z" fill="white"/>
</g>
<defs>
<filter id="filter0_di_448_4709" x="0" y="0" width="219" height="66" filterUnits="userSpaceOnUse" color-interpolation-filters="sRGB">
<feFlood flood-opacity="0" result="BackgroundImageFix"/>
<feColorMatrix in="SourceAlpha" type="matrix" values="0 0 0 0 0 0 0 0 0 0 0 0 0 0 0 0 0 0 127 0" result="hardAlpha"/>
<feMorphology radius="2" operator="dilate" in="SourceAlpha" result="effect1_dropShadow_448_4709"/>
<feOffset/>
<feGaussianBlur stdDeviation="2"/>
<feComposite in2="hardAlpha" operator="out"/>
<feColorMatrix type="matrix" values="0 0 0 0 0.87451 0 0 0 0 0.478431 0 0 0 0 0.00392157 0 0 0 1 0"/>
<feBlend mode="normal" in2="BackgroundImageFix" result="effect1_dropShadow_448_4709"/>
<feBlend mode="normal" in="SourceGraphic" in2="effect1_dropShadow_448_4709" result="shape"/>
<feColorMatrix in="SourceAlpha" type="matrix" values="0 0 0 0 0 0 0 0 0 0 0 0 0 0 0 0 0 0 127 0" result="hardAlpha"/>
<feOffset/>
<feGaussianBlur stdDeviation="0.5"/>
<feComposite in2="hardAlpha" operator="arithmetic" k2="-1" k3="1"/>
<feColorMatrix type="matrix" values="0 0 0 0 0.87451 0 0 0 0 0.478431 0 0 0 0 0.00392157 0 0 0 1 0"/>
<feBlend mode="normal" in2="shape" result="effect2_innerShadow_448_4709"/>
</filter>
</defs>
</svg>
