<svg width="64" height="64" viewBox="0 0 64 64" fill="none" xmlns="http://www.w3.org/2000/svg">
<circle opacity="0.7" cx="32" cy="32" r="31.5" stroke="url(#paint0_linear_2235_309)"/>
<circle opacity="0.7" cx="32" cy="32" r="24" fill="url(#paint1_linear_2235_309)"/>
<g filter="url(#filter0_d_2235_309)">
<path d="M38.9516 34.3058L39.7808 28.7379H34.5936V25.1246C34.5936 23.6013 35.3182 22.1165 37.6416 22.1165H40V17.3762C40 17.3762 37.8596 17 35.8133 17C31.5411 17 28.7489 19.6666 28.7489 24.4942V28.7379H24V34.3058H28.7489V47.766C29.7011 47.9199 30.677 48 31.6712 48C32.6654 48 33.6414 47.9199 34.5936 47.766V34.3058H38.9516Z" fill="white"/>
</g>
<defs>
<filter id="filter0_d_2235_309" x="20" y="15" width="32" height="47" filterUnits="userSpaceOnUse" color-interpolation-filters="sRGB">
<feFlood flood-opacity="0" result="BackgroundImageFix"/>
<feColorMatrix in="SourceAlpha" type="matrix" values="0 0 0 0 0 0 0 0 0 0 0 0 0 0 0 0 0 0 127 0" result="hardAlpha"/>
<feOffset dx="4" dy="6"/>
<feGaussianBlur stdDeviation="4"/>
<feComposite in2="hardAlpha" operator="out"/>
<feColorMatrix type="matrix" values="0 0 0 0 0 0 0 0 0 0 0 0 0 0 0 0 0 0 0.25 0"/>
<feBlend mode="normal" in2="BackgroundImageFix" result="effect1_dropShadow_2235_309"/>
<feBlend mode="normal" in="SourceGraphic" in2="effect1_dropShadow_2235_309" result="shape"/>
</filter>
<linearGradient id="paint0_linear_2235_309" x1="-2.00735e-08" y1="23.474" x2="64" y2="23.474" gradientUnits="userSpaceOnUse">
<stop stop-color="#E37B00"/>
<stop offset="1" stop-color="#BD7100"/>
</linearGradient>
<linearGradient id="paint1_linear_2235_309" x1="8" y1="25.6055" x2="56" y2="25.6055" gradientUnits="userSpaceOnUse">
<stop stop-color="#E37B00"/>
<stop offset="1" stop-color="#BD7100"/>
</linearGradient>
</defs>
</svg>
