<svg width="278" height="62" viewBox="0 0 278 62" fill="none" xmlns="http://www.w3.org/2000/svg">
<rect x="1.5" y="1.5" width="275" height="59" rx="2.5" stroke="url(#paint0_linear_569_6403)" stroke-width="3"/>
<path d="M84.5293 33.9043H79.457V30.7051H84.5293C85.3132 30.7051 85.9512 30.5775 86.4434 30.3223C86.9355 30.0579 87.2956 29.6934 87.5234 29.2285C87.7513 28.7637 87.8652 28.2396 87.8652 27.6562C87.8652 27.0638 87.7513 26.5124 87.5234 26.002C87.2956 25.4915 86.9355 25.0814 86.4434 24.7715C85.9512 24.4616 85.3132 24.3066 84.5293 24.3066H80.8789V41H76.7773V21.0938H84.5293C86.0879 21.0938 87.4232 21.3763 88.5352 21.9414C89.6562 22.4974 90.513 23.2676 91.1055 24.252C91.6979 25.2363 91.9941 26.362 91.9941 27.6289C91.9941 28.9141 91.6979 30.026 91.1055 30.9648C90.513 31.9036 89.6562 32.6283 88.5352 33.1387C87.4232 33.6491 86.0879 33.9043 84.5293 33.9043ZM98.7344 26.207V41H94.7832V26.207H98.7344ZM94.5371 22.3516C94.5371 21.7773 94.7376 21.3034 95.1387 20.9297C95.5397 20.556 96.0775 20.3691 96.752 20.3691C97.4173 20.3691 97.9505 20.556 98.3516 20.9297C98.7617 21.3034 98.9668 21.7773 98.9668 22.3516C98.9668 22.9258 98.7617 23.3997 98.3516 23.7734C97.9505 24.1471 97.4173 24.334 96.752 24.334C96.0775 24.334 95.5397 24.1471 95.1387 23.7734C94.7376 23.3997 94.5371 22.9258 94.5371 22.3516ZM109.234 26.207V28.9961H100.621V26.207H109.234ZM102.754 22.5566H106.691V36.543C106.691 36.9714 106.746 37.2995 106.855 37.5273C106.974 37.7552 107.147 37.9147 107.375 38.0059C107.603 38.0879 107.89 38.1289 108.236 38.1289C108.482 38.1289 108.701 38.1198 108.893 38.1016C109.093 38.0742 109.262 38.0469 109.398 38.0195L109.412 40.918C109.075 41.0273 108.71 41.1139 108.318 41.1777C107.926 41.2415 107.493 41.2734 107.02 41.2734C106.154 41.2734 105.397 41.1322 104.75 40.8496C104.112 40.5579 103.62 40.0931 103.273 39.4551C102.927 38.8171 102.754 37.9785 102.754 36.9395V22.5566ZM117.588 38.1973C118.071 38.1973 118.499 38.1061 118.873 37.9238C119.247 37.7324 119.538 37.4681 119.748 37.1309C119.967 36.7845 120.081 36.3789 120.09 35.9141H123.795C123.786 36.9531 123.508 37.8783 122.961 38.6895C122.414 39.4915 121.68 40.125 120.76 40.5898C119.839 41.0456 118.809 41.2734 117.67 41.2734C116.521 41.2734 115.519 41.082 114.662 40.6992C113.814 40.3164 113.108 39.7878 112.543 39.1133C111.978 38.4297 111.554 37.6367 111.271 36.7344C110.989 35.8229 110.848 34.8477 110.848 33.8086V33.4121C110.848 32.3639 110.989 31.3887 111.271 30.4863C111.554 29.5749 111.978 28.7819 112.543 28.1074C113.108 27.4238 113.814 26.8906 114.662 26.5078C115.51 26.125 116.503 25.9336 117.643 25.9336C118.855 25.9336 119.917 26.166 120.828 26.6309C121.749 27.0957 122.469 27.7611 122.988 28.627C123.517 29.4837 123.786 30.5 123.795 31.6758H120.09C120.081 31.1836 119.976 30.737 119.775 30.3359C119.584 29.9349 119.301 29.6159 118.928 29.3789C118.563 29.1328 118.112 29.0098 117.574 29.0098C117 29.0098 116.531 29.1328 116.166 29.3789C115.801 29.6159 115.519 29.944 115.318 30.3633C115.118 30.7734 114.977 31.2428 114.895 31.7715C114.822 32.291 114.785 32.8379 114.785 33.4121V33.8086C114.785 34.3828 114.822 34.9342 114.895 35.4629C114.967 35.9915 115.104 36.4609 115.305 36.8711C115.514 37.2812 115.801 37.6048 116.166 37.8418C116.531 38.0788 117.005 38.1973 117.588 38.1973ZM129.92 20V41H125.982V20H129.92ZM129.359 33.084H128.279C128.288 32.054 128.425 31.1061 128.689 30.2402C128.954 29.3652 129.332 28.6087 129.824 27.9707C130.316 27.3236 130.904 26.8223 131.588 26.4668C132.281 26.1113 133.046 25.9336 133.885 25.9336C134.614 25.9336 135.275 26.0384 135.867 26.248C136.469 26.4486 136.984 26.7767 137.412 27.2324C137.85 27.679 138.187 28.2669 138.424 28.9961C138.661 29.7253 138.779 30.6094 138.779 31.6484V41H134.814V31.6211C134.814 30.9648 134.719 30.4499 134.527 30.0762C134.345 29.6934 134.076 29.4245 133.721 29.2695C133.374 29.1055 132.946 29.0234 132.436 29.0234C131.87 29.0234 131.387 29.1283 130.986 29.3379C130.594 29.5475 130.28 29.8392 130.043 30.2129C129.806 30.5775 129.633 31.0059 129.523 31.498C129.414 31.9902 129.359 32.5189 129.359 33.084ZM148.131 41H143.797L143.824 37.8008H148.131C149.206 37.8008 150.113 37.5592 150.852 37.0762C151.59 36.584 152.146 35.8685 152.52 34.9297C152.902 33.9909 153.094 32.8561 153.094 31.5254V30.5547C153.094 29.5339 152.984 28.6361 152.766 27.8613C152.556 27.0866 152.242 26.4349 151.822 25.9062C151.403 25.3776 150.888 24.9811 150.277 24.7168C149.667 24.4434 148.965 24.3066 148.172 24.3066H143.715V21.0938H148.172C149.503 21.0938 150.719 21.3216 151.822 21.7773C152.934 22.224 153.896 22.8665 154.707 23.7051C155.518 24.5436 156.143 25.5462 156.58 26.7129C157.027 27.8704 157.25 29.1602 157.25 30.582V31.5254C157.25 32.9382 157.027 34.2279 156.58 35.3945C156.143 36.5612 155.518 37.5638 154.707 38.4023C153.905 39.2318 152.943 39.8743 151.822 40.3301C150.71 40.7767 149.48 41 148.131 41ZM146.121 21.0938V41H142.02V21.0938H146.121ZM166.793 41.2734C165.645 41.2734 164.615 41.0911 163.703 40.7266C162.792 40.3529 162.017 39.8379 161.379 39.1816C160.75 38.5254 160.267 37.7643 159.93 36.8984C159.592 36.0234 159.424 35.0938 159.424 34.1094V33.5625C159.424 32.4414 159.583 31.416 159.902 30.4863C160.221 29.5566 160.677 28.75 161.27 28.0664C161.871 27.3828 162.6 26.8587 163.457 26.4941C164.314 26.1204 165.28 25.9336 166.355 25.9336C167.404 25.9336 168.333 26.1068 169.145 26.4531C169.956 26.7995 170.635 27.2917 171.182 27.9297C171.738 28.5677 172.157 29.3333 172.439 30.2266C172.722 31.1107 172.863 32.0951 172.863 33.1797V34.8203H161.105V32.1953H168.994V31.8945C168.994 31.3477 168.894 30.86 168.693 30.4316C168.502 29.9941 168.21 29.6478 167.818 29.3926C167.426 29.1374 166.925 29.0098 166.314 29.0098C165.795 29.0098 165.348 29.1237 164.975 29.3516C164.601 29.5794 164.296 29.8984 164.059 30.3086C163.831 30.7188 163.658 31.2018 163.539 31.7578C163.43 32.3047 163.375 32.9062 163.375 33.5625V34.1094C163.375 34.7018 163.457 35.2487 163.621 35.75C163.794 36.2513 164.036 36.6842 164.346 37.0488C164.665 37.4134 165.048 37.696 165.494 37.8965C165.95 38.097 166.465 38.1973 167.039 38.1973C167.75 38.1973 168.411 38.0605 169.021 37.7871C169.641 37.5046 170.174 37.0807 170.621 36.5156L172.535 38.5938C172.225 39.0404 171.801 39.4688 171.264 39.8789C170.735 40.2891 170.097 40.6263 169.35 40.8906C168.602 41.1458 167.75 41.2734 166.793 41.2734ZM181.217 38.1973C181.7 38.1973 182.128 38.1061 182.502 37.9238C182.876 37.7324 183.167 37.4681 183.377 37.1309C183.596 36.7845 183.71 36.3789 183.719 35.9141H187.424C187.415 36.9531 187.137 37.8783 186.59 38.6895C186.043 39.4915 185.309 40.125 184.389 40.5898C183.468 41.0456 182.438 41.2734 181.299 41.2734C180.15 41.2734 179.148 41.082 178.291 40.6992C177.443 40.3164 176.737 39.7878 176.172 39.1133C175.607 38.4297 175.183 37.6367 174.9 36.7344C174.618 35.8229 174.477 34.8477 174.477 33.8086V33.4121C174.477 32.3639 174.618 31.3887 174.9 30.4863C175.183 29.5749 175.607 28.7819 176.172 28.1074C176.737 27.4238 177.443 26.8906 178.291 26.5078C179.139 26.125 180.132 25.9336 181.271 25.9336C182.484 25.9336 183.546 26.166 184.457 26.6309C185.378 27.0957 186.098 27.7611 186.617 28.627C187.146 29.4837 187.415 30.5 187.424 31.6758H183.719C183.71 31.1836 183.605 30.737 183.404 30.3359C183.213 29.9349 182.93 29.6159 182.557 29.3789C182.192 29.1328 181.741 29.0098 181.203 29.0098C180.629 29.0098 180.16 29.1328 179.795 29.3789C179.43 29.6159 179.148 29.944 178.947 30.3633C178.747 30.7734 178.605 31.2428 178.523 31.7715C178.451 32.291 178.414 32.8379 178.414 33.4121V33.8086C178.414 34.3828 178.451 34.9342 178.523 35.4629C178.596 35.9915 178.733 36.4609 178.934 36.8711C179.143 37.2812 179.43 37.6048 179.795 37.8418C180.16 38.0788 180.633 38.1973 181.217 38.1973ZM193.645 19.9863V41H189.707V19.9863H193.645ZM202.969 26.207L196.543 33.5352L193.098 37.0215L191.662 34.1777L194.396 30.7051L198.238 26.207H202.969ZM198.881 41L194.506 34.1641L197.227 31.7852L203.42 41H198.881Z" fill="url(#paint1_linear_569_6403)"/>
<defs>
<linearGradient id="paint0_linear_569_6403" x1="83.407" y1="4.59977" x2="90.3652" y2="70.9854" gradientUnits="userSpaceOnUse">
<stop stop-color="#FFFF18"/>
<stop offset="0.2203" stop-color="#FFCB0E"/>
<stop offset="0.5007" stop-color="#FF8300"/>
<stop offset="0.8867" stop-color="#FF6000"/>
<stop offset="1" stop-color="#FF9700"/>
</linearGradient>
<linearGradient id="paint1_linear_569_6403" x1="113.703" y1="17.4483" x2="117.937" y2="52.6617" gradientUnits="userSpaceOnUse">
<stop stop-color="#FFFF18"/>
<stop offset="0.2203" stop-color="#FFCB0E"/>
<stop offset="0.5007" stop-color="#FF8300"/>
<stop offset="0.8867" stop-color="#FF6000"/>
<stop offset="1" stop-color="#FF9700"/>
</linearGradient>
</defs>
</svg>
