<svg width="64" height="64" viewBox="0 0 64 64" fill="none" xmlns="http://www.w3.org/2000/svg">
<circle opacity="0.7" cx="32" cy="32" r="31.5" stroke="url(#paint0_linear_2235_298)"/>
<circle opacity="0.7" cx="32" cy="32" r="24" fill="url(#paint1_linear_2235_298)"/>
<g filter="url(#filter0_d_2235_298)">
<path d="M19.7177 30.4583C19.7177 30.4583 32.1088 25.1867 36.4063 23.3305C38.0537 22.588 43.6404 20.212 43.6404 20.212C43.6404 20.212 46.219 19.1726 46.0041 21.697C45.9324 22.7365 45.3594 26.3746 44.7865 30.3098C43.9269 35.8785 42.9958 41.9669 42.9958 41.9669C42.9958 41.9669 42.8526 43.6747 41.635 43.9716C40.4173 44.2686 38.4118 42.9322 38.0537 42.6351C37.7671 42.4124 32.6818 39.0712 30.8195 37.4377C30.3182 36.9922 29.7452 36.1013 30.8911 35.0618C33.4697 32.6116 36.5495 29.5674 38.4118 27.6369C39.2713 26.7459 40.1308 24.667 36.5495 27.1914C31.4642 30.8296 26.4504 34.245 26.4504 34.245C26.4504 34.245 25.3044 34.9875 23.1557 34.3192C21.0068 33.6511 18.5 32.7601 18.5 32.7601C18.5 32.7601 16.7811 31.6463 19.7177 30.4583Z" fill="white"/>
</g>
<defs>
<filter id="filter0_d_2235_298" x="14" y="18" width="44.0156" height="40.0144" filterUnits="userSpaceOnUse" color-interpolation-filters="sRGB">
<feFlood flood-opacity="0" result="BackgroundImageFix"/>
<feColorMatrix in="SourceAlpha" type="matrix" values="0 0 0 0 0 0 0 0 0 0 0 0 0 0 0 0 0 0 127 0" result="hardAlpha"/>
<feOffset dx="4" dy="6"/>
<feGaussianBlur stdDeviation="4"/>
<feComposite in2="hardAlpha" operator="out"/>
<feColorMatrix type="matrix" values="0 0 0 0 0 0 0 0 0 0 0 0 0 0 0 0 0 0 0.25 0"/>
<feBlend mode="normal" in2="BackgroundImageFix" result="effect1_dropShadow_2235_298"/>
<feBlend mode="normal" in="SourceGraphic" in2="effect1_dropShadow_2235_298" result="shape"/>
</filter>
<linearGradient id="paint0_linear_2235_298" x1="-2.00735e-08" y1="23.474" x2="64" y2="23.474" gradientUnits="userSpaceOnUse">
<stop stop-color="#E37B00"/>
<stop offset="1" stop-color="#BD7100"/>
</linearGradient>
<linearGradient id="paint1_linear_2235_298" x1="8" y1="25.6055" x2="56" y2="25.6055" gradientUnits="userSpaceOnUse">
<stop stop-color="#E37B00"/>
<stop offset="1" stop-color="#BD7100"/>
</linearGradient>
</defs>
</svg>
