<svg width="64" height="64" viewBox="0 0 64 64" fill="none" xmlns="http://www.w3.org/2000/svg">
<circle opacity="0.7" cx="32" cy="32" r="31.5" stroke="url(#paint0_linear_2235_290)"/>
<circle opacity="0.7" cx="32" cy="32" r="24" fill="url(#paint1_linear_2235_290)"/>
<g filter="url(#filter0_d_2235_290)">
<path d="M44.7239 25.4726C44.7434 25.7547 44.7435 26.0368 44.7435 26.3215C44.7435 34.9958 38.1393 45 26.0635 45V44.9948C22.4962 45 19.003 43.9783 16 42.0518C16.5187 42.1142 17.04 42.1454 17.5626 42.1467C20.5189 42.1493 23.3906 41.1574 25.7164 39.3311C22.907 39.2778 20.4435 37.4462 19.5829 34.7722C20.567 34.962 21.581 34.923 22.5469 34.6592C19.4841 34.0404 17.2805 31.3496 17.2805 28.2246C17.2805 28.196 17.2805 28.1687 17.2805 28.1414C18.1931 28.6496 19.215 28.9317 20.2602 28.9629C17.3754 27.0351 16.4862 23.1978 18.2282 20.1976C21.5615 24.2988 26.4795 26.792 31.7588 27.0559C31.2297 24.7759 31.9525 22.3866 33.6582 20.7838C36.3024 18.2984 40.4612 18.4258 42.9468 21.0685C44.4171 20.7786 45.8264 20.2392 47.116 19.4748C46.6259 20.9944 45.6002 22.2852 44.2299 23.1055C45.5313 22.9521 46.8027 22.6037 48 22.072C47.1186 23.3928 46.0084 24.5432 44.7239 25.4726Z" fill="white"/>
</g>
<defs>
<filter id="filter0_d_2235_290" x="12" y="17" width="48" height="42" filterUnits="userSpaceOnUse" color-interpolation-filters="sRGB">
<feFlood flood-opacity="0" result="BackgroundImageFix"/>
<feColorMatrix in="SourceAlpha" type="matrix" values="0 0 0 0 0 0 0 0 0 0 0 0 0 0 0 0 0 0 127 0" result="hardAlpha"/>
<feOffset dx="4" dy="6"/>
<feGaussianBlur stdDeviation="4"/>
<feComposite in2="hardAlpha" operator="out"/>
<feColorMatrix type="matrix" values="0 0 0 0 0 0 0 0 0 0 0 0 0 0 0 0 0 0 0.25 0"/>
<feBlend mode="normal" in2="BackgroundImageFix" result="effect1_dropShadow_2235_290"/>
<feBlend mode="normal" in="SourceGraphic" in2="effect1_dropShadow_2235_290" result="shape"/>
</filter>
<linearGradient id="paint0_linear_2235_290" x1="-2.00735e-08" y1="23.474" x2="64" y2="23.474" gradientUnits="userSpaceOnUse">
<stop stop-color="#E37B00"/>
<stop offset="1" stop-color="#BD7100"/>
</linearGradient>
<linearGradient id="paint1_linear_2235_290" x1="8" y1="25.6055" x2="56" y2="25.6055" gradientUnits="userSpaceOnUse">
<stop stop-color="#E37B00"/>
<stop offset="1" stop-color="#BD7100"/>
</linearGradient>
</defs>
</svg>
