<svg width="64" height="64" viewBox="0 0 64 64" fill="none" xmlns="http://www.w3.org/2000/svg">
<circle opacity="0.7" cx="32" cy="32" r="31.5" stroke="url(#paint0_linear_2235_317)"/>
<circle opacity="0.7" cx="32" cy="32" r="24" fill="url(#paint1_linear_2235_317)"/>
<g clip-path="url(#clip0_2235_317)">
<path d="M47.3342 24.6759C47.153 24.0296 46.8 23.4444 46.3128 22.9826C45.8119 22.5066 45.1979 22.1661 44.5288 21.9933C42.0248 21.3333 31.9928 21.3333 31.9928 21.3333C27.8106 21.2857 23.6294 21.495 19.4728 21.9599C18.8037 22.1456 18.1909 22.4937 17.6888 22.9733C17.1955 23.4479 16.8382 24.0333 16.6515 24.6746C16.2031 27.0903 15.9852 29.5431 16.0008 31.9999C15.9848 34.4546 16.2022 36.9066 16.6515 39.3253C16.8342 39.9639 17.1902 40.5466 17.6848 41.0173C18.1795 41.4879 18.7955 41.8279 19.4728 42.0079C22.0102 42.6666 31.9928 42.6666 31.9928 42.6666C36.1804 42.7143 40.3669 42.505 44.5288 42.0399C45.1979 41.8671 45.8119 41.5266 46.3128 41.0506C46.7998 40.5889 47.1524 40.0036 47.3328 39.3573C47.7929 36.9425 48.0167 34.4887 48.0008 32.0306C48.0354 29.5621 47.812 27.0967 47.3342 24.6746V24.6759ZM28.8035 36.5653V27.4359L37.1502 32.0013L28.8035 36.5653Z" fill="white"/>
</g>
<defs>
<linearGradient id="paint0_linear_2235_317" x1="-2.00735e-08" y1="23.474" x2="64" y2="23.474" gradientUnits="userSpaceOnUse">
<stop stop-color="#E37B00"/>
<stop offset="1" stop-color="#BD7100"/>
</linearGradient>
<linearGradient id="paint1_linear_2235_317" x1="8" y1="25.6055" x2="56" y2="25.6055" gradientUnits="userSpaceOnUse">
<stop stop-color="#E37B00"/>
<stop offset="1" stop-color="#BD7100"/>
</linearGradient>
<clipPath id="clip0_2235_317">
<rect width="32" height="32" fill="white" transform="translate(16 16)"/>
</clipPath>
</defs>
</svg>
